<?xml version="1.0" encoding="UTF-8"?><svg id="Capa_1" xmlns="http://www.w3.org/2000/svg" viewBox="0 0 170.74 138.59"><defs><style>.cls-1{fill:#fff;}.cls-2{fill:#211915;}</style></defs><g><rect class="cls-1" x="49.73" y="2.91" width="117.05" height="77.93"/><path class="cls-2" d="M169.69,83.75H46.82V0h122.87V83.75Zm-117.05-5.81h111.24V5.81H52.64V77.93Z"/></g><g><polygon class="cls-2" points="124.49 135.67 6.11 135.68 48.72 83.26 164.83 83.26 124.49 135.67"/><path class="cls-2" d="M0,138.59l47.34-58.24h123.4l-44.81,58.22H0Zm50.1-52.41L12.22,132.78H123.06s35.86-46.61,35.86-46.61H50.1Z"/></g><g><rect class="cls-2" x="62.86" y="18.1" width="14.55" height="14.55"/><path class="cls-2" d="M80.31,35.56h-20.36V15.19h20.36v20.36Zm-14.55-5.81h8.73v-8.73h-8.73v8.73Z"/></g><g><circle class="cls-2" cx="108.73" cy="52.11" r="10.24"/><path class="cls-2" d="M108.73,65.26c-7.25,0-13.15-5.9-13.15-13.15s5.9-13.15,13.15-13.15,13.15,5.9,13.15,13.15-5.9,13.15-13.15,13.15Zm0-20.48c-4.04,0-7.33,3.29-7.33,7.33s3.29,7.33,7.33,7.33,7.33-3.29,7.33-7.33-3.29-7.33-7.33-7.33Z"/></g><rect class="cls-2" x="136.26" y="15.72" width="5.82" height="24.95" transform="translate(30.89 120.06) rotate(-51.77)"/></svg>